<svg viewBox="0 0 800 500" width="100%" xmlns="http://www.w3.org/2000/svg">
  <rect width="100%" height="100%" fill="#FBF9F6"/>
  <text x="400" y="40" text-anchor="middle" font-family="Helvetica, Arial, sans-serif" font-size="20" font-weight="bold" fill="#1B1B2F">From Symbol to Information</text>
  <circle cx="130" cy="140" r="55" fill="none" stroke="#1B1B2F" stroke-width="1"/>
  <text x="130" y="155" text-anchor="middle" font-family="Helvetica, Arial, sans-serif" font-size="48" fill="#1B1B2F">E</text>
  <text x="130" y="220" text-anchor="middle" font-family="Helvetica, Arial, sans-serif" font-size="13" fill="#1B1B2F">Symbol</text>
  <text x="130" y="238" text-anchor="middle" font-family="Helvetica, Arial, sans-serif" font-size="11" fill="#98A6B3">an agreed-upon stand-in</text>
  <line x1="200" y1="140" x2="290" y2="140" stroke="#98A6B3" stroke-width="2"/>
  <rect x="300" y="100" width="150" height="80" rx="8" fill="#3D5A80" stroke="#1B1B2F" stroke-width="2"/>
  <text x="375" y="135" text-anchor="middle" font-family="Helvetica, Arial, sans-serif" font-size="14" fill="#FBF9F6">Computation</text>
  <text x="375" y="155" text-anchor="middle" font-family="Helvetica, Arial, sans-serif" font-size="11" fill="#FBF9F6">mechanical rule-following</text>
  <line x1="460" y1="140" x2="540" y2="140" stroke="#98A6B3" stroke-width="2"/>
  <path d="M 550 190 Q 590 100 630 60 T 700 190" fill="none" stroke="#EE964B" stroke-width="2"/>
  <text x="625" y="230" text-anchor="middle" font-family="Helvetica, Arial, sans-serif" font-size="13" fill="#1B1B2F">Probability</text>
  <text x="625" y="248" text-anchor="middle" font-family="Helvetica, Arial, sans-serif" font-size="11" fill="#98A6B3">how surprising is it?</text>
  <rect x="230" y="330" width="340" height="90" rx="8" fill="#F9DC5C" fill-opacity="0.3" stroke="#1B1B2F" stroke-width="2"/>
  <text x="400" y="370" text-anchor="middle" font-family="Helvetica, Arial, sans-serif" font-size="18" font-weight="bold" fill="#1B1B2F">Information</text>
  <text x="400" y="395" text-anchor="middle" font-family="Helvetica, Arial, sans-serif" font-size="12" fill="#1B1B2F">= how much uncertainty is reduced</text>
  <line x1="375" y1="180" x2="380" y2="330" stroke="#98A6B3" stroke-width="2"/>
  <line x1="625" y1="230" x2="420" y2="330" stroke="#98A6B3" stroke-width="2"/>
</svg>
