<svg viewBox="0 0 600 300" width="100%" xmlns="http://www.w3.org/2000/svg">
  <rect width="100%" height="100%" fill="#FBF9F6"/>
  <text x="300" y="30" text-anchor="middle" font-family="Helvetica, Arial, sans-serif" font-size="15" font-weight="bold" fill="#1B1B2F">Three Ways to Chop "unbelievable"</text>
  <text x="30" y="70" font-family="Helvetica, Arial, sans-serif" font-size="12" fill="#98A6B3">characters</text>
  <g font-family="Helvetica, Arial, sans-serif" font-size="13" fill="#FBF9F6">
    <rect x="30" y="80" width="24" height="28" rx="4" fill="#3D5A80"/><text x="42" y="99" text-anchor="middle">u</text>
    <rect x="58" y="80" width="24" height="28" rx="4" fill="#3D5A80"/><text x="70" y="99" text-anchor="middle">n</text>
    <rect x="86" y="80" width="24" height="28" rx="4" fill="#3D5A80"/><text x="98" y="99" text-anchor="middle">b</text>
    <rect x="114" y="80" width="24" height="28" rx="4" fill="#3D5A80"/><text x="126" y="99" text-anchor="middle">e</text>
    <rect x="142" y="80" width="24" height="28" rx="4" fill="#3D5A80"/><text x="154" y="99" text-anchor="middle">l</text>
    <rect x="170" y="80" width="24" height="28" rx="4" fill="#3D5A80"/><text x="182" y="99" text-anchor="middle">…</text>
  </g>
  <text x="30" y="150" font-family="Helvetica, Arial, sans-serif" font-size="12" fill="#98A6B3">subword tokens</text>
  <g font-family="Helvetica, Arial, sans-serif" font-size="13" fill="#FBF9F6">
    <rect x="30" y="160" width="50" height="28" rx="8" fill="#3D5A80"/><text x="55" y="179" text-anchor="middle">un</text>
    <rect x="86" y="160" width="90" height="28" rx="8" fill="#457B9D"/><text x="131" y="179" text-anchor="middle">believe</text>
    <rect x="182" y="160" width="60" height="28" rx="8" fill="#3D5A80"/><text x="212" y="179" text-anchor="middle">able</text>
  </g>
  <text x="30" y="230" font-family="Helvetica, Arial, sans-serif" font-size="12" fill="#98A6B3">whole word</text>
  <rect x="30" y="240" width="212" height="28" rx="8" fill="#6D597A"/>
  <text x="136" y="259" text-anchor="middle" font-family="Helvetica, Arial, sans-serif" font-size="13" fill="#FBF9F6">unbelievable</text>
</svg>
