<svg viewBox="0 0 800 500" width="100%" xmlns="http://www.w3.org/2000/svg">
  <rect width="100%" height="100%" fill="#FBF9F6"/>
  <text x="400" y="40" text-anchor="middle" font-family="Helvetica, Arial, sans-serif" font-size="20" font-weight="bold" fill="#1B1B2F">Text → Tokens → Numbers</text>
  <text x="400" y="90" text-anchor="middle" font-family="Helvetica, Arial, sans-serif" font-size="16" fill="#1B1B2F">"the unbelievable cat"</text>
  <line x1="400" y1="105" x2="400" y2="140" stroke="#98A6B3" stroke-width="2"/>
  <g font-family="Helvetica, Arial, sans-serif" font-size="14" fill="#FBF9F6">
    <rect x="120" y="150" width="70" height="45" rx="8" fill="#3D5A80" stroke="#1B1B2F" stroke-width="2"/><text x="155" y="178" text-anchor="middle">the</text>
    <rect x="200" y="150" width="55" height="45" rx="8" fill="#457B9D" stroke="#1B1B2F" stroke-width="2"/><text x="227" y="178" text-anchor="middle">un</text>
    <rect x="265" y="150" width="95" height="45" rx="8" fill="#457B9D" stroke="#1B1B2F" stroke-width="2"/><text x="312" y="178" text-anchor="middle">believ</text>
    <rect x="370" y="150" width="65" height="45" rx="8" fill="#457B9D" stroke="#1B1B2F" stroke-width="2"/><text x="402" y="178" text-anchor="middle">able</text>
    <rect x="445" y="150" width="70" height="45" rx="8" fill="#3D5A80" stroke="#1B1B2F" stroke-width="2"/><text x="480" y="178" text-anchor="middle">cat</text>
  </g>
  <line x1="400" y1="205" x2="400" y2="240" stroke="#98A6B3" stroke-width="2"/>
  <g font-family="Helvetica, Arial, sans-serif" font-size="13" fill="#1B1B2F">
    <text x="155" y="270" text-anchor="middle">1723</text>
    <text x="227" y="270" text-anchor="middle">312</text>
    <text x="312" y="270" text-anchor="middle">9981</text>
    <text x="402" y="270" text-anchor="middle">88</text>
    <text x="480" y="270" text-anchor="middle">5502</text>
  </g>
  <text x="400" y="320" text-anchor="middle" font-family="Helvetica, Arial, sans-serif" font-size="12" fill="#98A6B3">this numeric sequence is what the model actually receives</text>
</svg>
