<svg viewBox="0 0 600 300" width="100%" xmlns="http://www.w3.org/2000/svg">
  <rect width="100%" height="100%" fill="#FBF9F6"/>
  <text x="300" y="30" text-anchor="middle" font-family="Helvetica, Arial, sans-serif" font-size="15" font-weight="bold" fill="#1B1B2F">Predictable Words Compress Away</text>
  <g font-family="Helvetica, Arial, sans-serif" font-size="13" fill="#FBF9F6">
    <rect x="30" y="70" width="60" height="30" rx="8" fill="#98A6B3" opacity="0.5"/><text x="60" y="90" text-anchor="middle" fill="#1B1B2F">I will</text>
    <rect x="96" y="70" width="30" height="30" rx="8" fill="#98A6B3" opacity="0.5"/><text x="111" y="90" text-anchor="middle" fill="#1B1B2F">be</text>
    <rect x="132" y="70" width="90" height="30" rx="8" fill="#98A6B3" opacity="0.5"/><text x="177" y="90" text-anchor="middle" fill="#1B1B2F">arriving on</text>
    <rect x="228" y="70" width="90" height="30" rx="8" fill="#EE964B"/><text x="273" y="90" text-anchor="middle">Tuesday</text>
  </g>
  <text x="126" y="120" text-anchor="middle" font-family="Helvetica, Arial, sans-serif" font-size="10" fill="#98A6B3">predictable → safe to cut</text>
  <text x="273" y="120" text-anchor="middle" font-family="Helvetica, Arial, sans-serif" font-size="10" fill="#EE964B">carries real information → must keep</text>
  <line x1="30" y1="160" x2="570" y2="160" stroke="#1B1B2F" stroke-width="1" stroke-dasharray="3 3"/>
  <g font-family="Helvetica, Arial, sans-serif" font-size="14" fill="#FBF9F6">
    <rect x="30" y="190" width="90" height="34" rx="8" fill="#3D5A80"/><text x="75" y="212" text-anchor="middle">ARRIVE</text>
    <rect x="128" y="190" width="110" height="34" rx="8" fill="#3D5A80"/><text x="183" y="212" text-anchor="middle">TUESDAY</text>
    <rect x="246" y="190" width="90" height="34" rx="8" fill="#3D5A80"/><text x="291" y="212" text-anchor="middle">STOP</text>
  </g>
  <text x="300" y="260" text-anchor="middle" font-family="Helvetica, Arial, sans-serif" font-size="12" fill="#98A6B3">what remains is exactly the part the reader couldn't have guessed</text>
</svg>
