<svg viewBox="0 0 800 500" width="100%" xmlns="http://www.w3.org/2000/svg">
  <rect width="100%" height="100%" fill="#FBF9F6"/>
  <text x="400" y="40" text-anchor="middle" font-family="Helvetica, Arial, sans-serif" font-size="20" font-weight="bold" fill="#1B1B2F">Counting vs. Generalizing</text>
  <text x="200" y="80" text-anchor="middle" font-family="Helvetica, Arial, sans-serif" font-size="15" fill="#1B1B2F">Counting Table</text>
  <g stroke="#98A6B3" stroke-width="1">
    <line x1="60" y1="100" x2="340" y2="100"/><line x1="60" y1="140" x2="340" y2="140"/>
    <line x1="60" y1="180" x2="340" y2="180"/><line x1="60" y1="220" x2="340" y2="220"/>
    <line x1="60" y1="260" x2="340" y2="260"/>
    <line x1="60" y1="100" x2="60" y2="260"/><line x1="130" y1="100" x2="130" y2="260"/>
    <line x1="200" y1="100" x2="200" y2="260"/><line x1="270" y1="100" x2="270" y2="260"/>
    <line x1="340" y1="100" x2="340" y2="260"/>
  </g>
  <text x="95" y="125" text-anchor="middle" font-family="Helvetica, Arial, sans-serif" font-size="16" fill="#3D5A80">412</text>
  <text x="165" y="165" text-anchor="middle" font-family="Helvetica, Arial, sans-serif" font-size="16" fill="#3D5A80">7</text>
  <text x="305" y="245" text-anchor="middle" font-family="Helvetica, Arial, sans-serif" font-size="14" fill="#D7263D">0</text>
  <text x="235" y="205" text-anchor="middle" font-family="Helvetica, Arial, sans-serif" font-size="14" fill="#D7263D">0</text>
  <text x="200" y="290" text-anchor="middle" font-family="Helvetica, Arial, sans-serif" font-size="12" fill="#98A6B3">mostly empty — new sequences get nothing</text>
  <text x="620" y="80" text-anchor="middle" font-family="Helvetica, Arial, sans-serif" font-size="15" fill="#1B1B2F">Geometric Generalization</text>
  <g stroke="#98A6B3" stroke-width="1" stroke-dasharray="2 4">
    <line x1="460" y1="120" x2="780" y2="120"/><line x1="460" y1="180" x2="780" y2="180"/>
    <line x1="460" y1="240" x2="780" y2="240"/>
    <line x1="540" y1="100" x2="540" y2="260"/><line x1="620" y1="100" x2="620" y2="260"/><line x1="700" y1="100" x2="700" y2="260"/>
  </g>
  <circle cx="560" cy="150" r="7" fill="#457B9D"/><text x="560" y="140" text-anchor="middle" font-family="Helvetica, Arial, sans-serif" font-size="11" fill="#1B1B2F">cat</text>
  <circle cx="590" cy="170" r="7" fill="#457B9D"/><text x="605" y="185" text-anchor="middle" font-family="Helvetica, Arial, sans-serif" font-size="11" fill="#1B1B2F">kitten</text>
  <circle cx="700" cy="210" r="9" fill="#EE964B"/><text x="700" y="235" text-anchor="middle" font-family="Helvetica, Arial, sans-serif" font-size="11" fill="#1B1B2F">new sequence</text>
  <text x="620" y="290" text-anchor="middle" font-family="Helvetica, Arial, sans-serif" font-size="12" fill="#98A6B3">nearby points fill the gaps a table leaves empty</text>
</svg>
