<svg viewBox="0 0 800 500" width="100%" xmlns="http://www.w3.org/2000/svg">
  <rect width="100%" height="100%" fill="#FBF9F6"/>
  <text x="400" y="40" text-anchor="middle" font-family="Helvetica, Arial, sans-serif" font-size="20" font-weight="bold" fill="#1B1B2F">Layers of Simple, Weighted Units</text>
  <text x="120" y="80" text-anchor="middle" font-family="Helvetica, Arial, sans-serif" font-size="13" fill="#98A6B3">input</text>
  <text x="400" y="80" text-anchor="middle" font-family="Helvetica, Arial, sans-serif" font-size="13" fill="#98A6B3">hidden layers</text>
  <text x="680" y="80" text-anchor="middle" font-family="Helvetica, Arial, sans-serif" font-size="13" fill="#98A6B3">output</text>
  <g id="ch08-fig2-nodes">
    <circle cx="120" cy="140" r="10" fill="#98A6B3"/>
    <circle cx="120" cy="220" r="10" fill="#98A6B3"/>
    <circle cx="120" cy="300" r="10" fill="#98A6B3"/>
    <circle cx="120" cy="380" r="10" fill="#98A6B3"/>
    <circle cx="330" cy="120" r="10" fill="#3D5A80"/>
    <circle cx="330" cy="190" r="10" fill="#3D5A80"/>
    <circle cx="330" cy="260" r="10" fill="#3D5A80"/>
    <circle cx="330" cy="330" r="10" fill="#3D5A80"/>
    <circle cx="330" cy="400" r="10" fill="#3D5A80"/>
    <circle cx="470" cy="140" r="10" fill="#3D5A80"/>
    <circle cx="470" cy="220" r="10" fill="#3D5A80"/>
    <circle cx="470" cy="300" r="10" fill="#3D5A80"/>
    <circle cx="470" cy="380" r="10" fill="#3D5A80"/>
    <circle cx="680" cy="200" r="10" fill="#EE964B"/>
    <circle cx="680" cy="280" r="10" fill="#EE964B"/>
    <circle cx="680" cy="360" r="10" fill="#EE964B"/>
  </g>
  <g stroke="#98A6B3" stroke-width="1" opacity="0.6">
    <line x1="130" y1="140" x2="320" y2="120"/><line x1="130" y1="140" x2="320" y2="260"/>
    <line x1="130" y1="220" x2="320" y2="190"/><line x1="130" y1="220" x2="320" y2="330"/>
    <line x1="130" y1="300" x2="320" y2="260"/><line x1="130" y1="300" x2="320" y2="400"/>
    <line x1="130" y1="380" x2="320" y2="330"/><line x1="130" y1="380" x2="320" y2="120"/>
    <line x1="340" y1="120" x2="460" y2="140"/><line x1="340" y1="190" x2="460" y2="220"/>
    <line x1="340" y1="260" x2="460" y2="140"/><line x1="340" y1="330" x2="460" y2="300"/>
    <line x1="340" y1="400" x2="460" y2="380"/><line x1="340" y1="120" x2="460" y2="380"/>
    <line x1="480" y1="140" x2="670" y2="200"/><line x1="480" y1="220" x2="670" y2="280"/>
    <line x1="480" y1="300" x2="670" y2="360"/><line x1="480" y1="380" x2="670" y2="280"/>
  </g>
  <text x="400" y="460" text-anchor="middle" font-family="Helvetica, Arial, sans-serif" font-size="12" fill="#98A6B3">every connection carries its own adjustable weight — this is where the parameters live</text>
</svg>
